<svg width="131" height="86" viewBox="0 0 131 86" fill="none" xmlns="http://www.w3.org/2000/svg">
<g clip-path="url(#clip0_67_257)">
<path fill-rule="evenodd" clip-rule="evenodd" d="M105.9 31.3C112.5 31.8 118.5 34.7 122.9 39.2C127.8 44.1 130.8 50.8 130.8 58.3C130.8 65.8 127.8 72.5 122.9 77.4C118 82.3 111.2 85.3 103.8 85.3H97.2L93.5 83.1L75.2 73.2C74.3 74.2 72.9 74.8 71.4 74.8C69.4 74.8 67.7 73.7 66.8 72L30.9 83L30.1 83.2L28.2 83.8L27.4 84L24.1 85C17.8 84.3 12.2 81.5 8 77.2C3 72.5 0 65.8 0 58.3C0 52.6 1.7 47.4 4.7 43C7.6 38.8 11.7 35.4 16.5 33.4C18.3 29.2 21.3 25.6 25 23.1C28.8 20.5 33.5 18.9 38.5 18.9C39.9 18.9 41.3 19 42.7 19.3C43.5 19.4 44.2 19.6 44.9 19.8C47.2 14.2 51 9.4 55.8 6C61 2.2 67.4 0 74.3 0C83 0 90.9 3.5 96.6 9.3C102.3 14.9 105.8 22.7 105.9 31.3ZM71.6 64.5C72.6 64.6 73.6 64.9 74.4 65.5L83.5 55.9L84.4 56.8L75.3 66.4C75.7 66.9 76 67.4 76.2 68.1L106.2 59.7V59.6C106.2 59.3 106.2 59 106.3 58.7L95 54.4C95.2 54 95.3 53.6 95.4 53.2L106.8 57.6C107.2 57.1 107.7 56.7 108.3 56.5L102.4 35.2L93.5 46.3C93.2 46 92.9 45.7 92.5 45.5L101.7 34L79 27.7C79.1 27.3 79.2 26.9 79.3 26.4L101.8 32.6V31.6C101.8 24 98.7 17 93.7 12C90.1 8.4 85.4 5.7 80.2 4.6L75.1 19.2C74.7 19 74.3 18.9 73.9 18.8L78.9 4.4C77.3 4.1 75.7 4 74.1 4C68.1 4 62.5 5.9 57.9 9.2C53.2 12.6 49.7 17.4 47.8 22.9L47.6 23.6L65.4 24.3C65.3 24.7 65.3 25.1 65.3 25.5L47.2 24.9L42.2 38.7C42.6 38.9 42.9 39.2 43.1 39.6L65.6 28.1V28.2L64 30.3L43.9 40.6C44 40.9 44 41.1 44 41.4C44 43 42.9 44.3 41.4 44.6L40.8 60.6H40.5C40.2 60.6 39.8 60.6 39.5 60.7L40.1 44.6C39.7 44.5 39.2 44.3 38.9 44.1L23.4 58.7C23.8 59.2 24 59.9 24 60.6C24 60.9 24 61.2 23.9 61.4L33.9 65.2L33.6 66.4L23.4 62.5C23.1 62.9 22.7 63.3 22.2 63.5L30.7 81.1L36 73C36.3 73.3 36.7 73.5 37.1 73.7L32.2 81.3L66.2 70.8C66.2 70.7 66.1 70.6 66.1 70.4L47.2 69.3C47.3 68.9 47.4 68.5 47.4 68.1L66.1 69.2C66.3 66.8 68 64.9 70.3 64.5L71.5 32.4C71.8 32.4 72.1 32.5 72.4 32.5H72.8L71.6 64.5ZM76.5 69.2V69.6C76.5 70.5 76.3 71.4 75.9 72.1L92.9 81.3H93L107.3 62C107 61.7 106.7 61.3 106.6 60.9L76.5 69.2ZM40.5 62.2C37.5 62.2 35.1 64.6 35.1 67.6C35.1 70.6 37.5 73 40.5 73C43.5 73 45.9 70.6 45.9 67.6C45.9 66.5 45.6 65.5 45 64.7L70.7 30.7C71.2 30.9 71.8 31 72.4 31C72.8 31 73.2 31 73.6 30.9L84.4 48.1C83.7 49 83.3 50.1 83.3 51.3C83.3 54.3 85.7 56.7 88.7 56.7C91.7 56.7 94.1 54.3 94.1 51.3C94.1 48.3 91.7 45.9 88.7 45.9C88.4 45.9 88 45.9 87.7 46L76.9 28.6C77.5 27.7 77.9 26.7 77.9 25.5C77.9 22.5 75.5 20.1 72.5 20.1C69.5 20.1 67.1 22.5 67.1 25.5C67.1 26.5 67.3 27.4 67.8 28.1L41.9 62.4C41.4 62.3 41 62.2 40.5 62.2ZM109.6 56.3C110.5 56.3 111.4 56.7 112 57.4L125.3 49.9C124.1 46.9 122.4 44.3 120.2 42.1C116 37.9 110.3 35.3 103.9 35.3L109.6 56.3ZM112.7 58.4C112.8 58.8 112.9 59.2 112.9 59.6C112.9 60.4 112.6 61.1 112.2 61.7L120.8 74C124.6 69.9 126.9 64.4 126.9 58.4C126.9 55.9 126.5 53.4 125.7 51.1L112.7 58.4ZM111.2 62.5C110.7 62.8 110.2 62.9 109.6 62.9C109.1 62.9 108.7 62.8 108.3 62.6L94.7 81.4H103.8C110.1 81.4 115.8 78.9 119.9 74.8L111.2 62.5ZM40.7 38.1C40.9 38.1 41.1 38.1 41.3 38.2L46.2 24.4L45.5 24.1C44.4 23.7 43.3 23.4 42.1 23.2C41 23 39.8 22.9 38.5 22.9C34.3 22.9 30.4 24.2 27.2 26.4C24 28.6 21.5 31.7 20 35.3L37.7 40C38.2 38.8 39.4 38.1 40.7 38.1ZM38 43.3C37.6 42.8 37.4 42.1 37.4 41.4V41.2L19.5 36.5L20.7 57.4C21.4 57.4 22 57.6 22.5 57.9L38 43.3ZM21 64H20.7C19.3 64 18.1 63.2 17.6 62L4.8 64.5C5.9 68.4 8 71.9 10.7 74.7C14.9 78.9 20.7 81.5 27 81.5H29.1L21 64ZM17.4 60.7C17.4 59.3 18.3 58.1 19.5 57.6L18.3 36.9C14.1 38.6 10.5 41.5 8 45.2C5.5 48.9 4 53.4 4 58.2C4 59.9 4.2 61.6 4.5 63.2L17.4 60.7Z" fill="#00A1FF"/>
</g>
<defs>
<clipPath id="clip0_67_257">
<rect width="130.8" height="85.3" fill="white"/>
</clipPath>
</defs>
</svg>
